<?xml version="1.0" standalone="no"?>
<!DOCTYPE svg PUBLIC "-//W3C//DTD SVG 20010904//EN"
 "http://www.w3.org/TR/2001/REC-SVG-20010904/DTD/svg10.dtd">
<svg version="1.0" xmlns="http://www.w3.org/2000/svg"
 width="128.000000pt" height="128.000000pt" viewBox="0 0 128.000000 128.000000"
 preserveAspectRatio="xMidYMid meet">

<g transform="translate(0.000000,128.000000) scale(0.100000,-0.100000)"
fill="#000000" stroke="none">
<path d="M210 1230 l0 -50 -45 0 c-64 0 -120 -31 -145 -80 -19 -38 -20 -58
-20 -510 0 -452 1 -472 20 -510 13 -26 34 -47 60 -60 36 -19 58 -20 310 -20
l272 0 -44 50 -43 49 -221 1 c-201 0 -222 2 -237 18 -15 17 -17 56 -17 355 l0
337 540 0 540 0 0 -52 c1 -51 3 -55 50 -96 l50 -44 0 222 c0 202 -2 224 -20
260 -25 49 -81 80 -145 80 l-45 0 0 50 0 50 -50 0 -50 0 0 -50 0 -50 -330 0
-330 0 0 50 0 50 -50 0 -50 0 0 -50z m0 -200 l0 -50 50 0 50 0 0 50 0 50 330
0 330 0 0 -50 0 -50 50 0 50 0 0 50 0 50 37 0 c58 0 73 -21 73 -102 l0 -68
-540 0 -540 0 0 67 c0 81 15 103 72 103 l38 0 0 -50z"/>
<path d="M190 655 l0 -55 50 0 50 0 0 55 0 55 -50 0 -50 0 0 -55z"/>
<path d="M390 655 l0 -55 50 0 50 0 0 55 0 55 -50 0 -50 0 0 -55z"/>
<path d="M590 655 l0 -55 50 0 50 0 0 55 0 55 -50 0 -50 0 0 -55z"/>
<path d="M835 658 c-77 -28 -157 -100 -196 -176 -34 -68 -38 -186 -10 -263 30
-79 88 -141 169 -181 59 -29 76 -33 147 -33 98 1 167 29 234 96 67 67 95 136
96 234 0 71 -4 88 -33 147 -61 124 -166 189 -305 187 -40 0 -85 -5 -102 -11z
m198 -101 c52 -22 98 -68 123 -122 44 -94 27 -183 -51 -260 -77 -78 -166 -95
-260 -51 -89 41 -135 115 -135 213 1 97 50 175 135 214 48 22 142 25 188 6z"/>
<path d="M890 400 l0 -110 96 0 95 0 -3 48 -3 47 -42 3 -43 3 0 60 0 59 -50 0
-50 0 0 -110z"/>
<path d="M190 455 l0 -55 50 0 50 0 0 55 0 55 -50 0 -50 0 0 -55z"/>
<path d="M390 455 l0 -55 50 0 50 0 0 55 0 55 -50 0 -50 0 0 -55z"/>
<path d="M190 255 l0 -55 50 0 50 0 0 55 0 55 -50 0 -50 0 0 -55z"/>
<path d="M390 255 l0 -55 50 0 50 0 0 55 0 55 -50 0 -50 0 0 -55z"/>
</g>
</svg>
